<svg xmlns="http://www.w3.org/2000/svg" width="24" height="24" viewBox="0 0 24 24">
  <g id="call" transform="translate(-1236 -6025)">
    <path id="Path_8" data-name="Path 8" d="M0,0H24V24H0Z" transform="translate(1236 6025)" fill="none"/>
    <rect id="Rectangle_661" data-name="Rectangle 661" width="24" height="24" transform="translate(1236 6025)" fill="none"/>
    <path id="Path_9" data-name="Path 9" d="M21.9,16.756a12.714,12.714,0,0,1-3.922-.622,1.086,1.086,0,0,0-1.122.267l-1.744,2.189A16.87,16.87,0,0,1,7.456,11L9.622,9.156a1.134,1.134,0,0,0,.267-1.133A12.392,12.392,0,0,1,9.267,4.1,1.11,1.11,0,0,0,8.167,3H4.322C3.722,3,3,3.267,3,4.1A19.058,19.058,0,0,0,21.9,23,1.166,1.166,0,0,0,23,21.689V17.856a1.11,1.11,0,0,0-1.1-1.1Z" transform="translate(1235 6024)" fill="#243c72"/>
  </g>
</svg>
